<svg xmlns="http://www.w3.org/2000/svg" xmlns:xlink="http://www.w3.org/1999/xlink" width="498" zoomAndPan="magnify" viewBox="0 0 373.5 262.499992" height="350" preserveAspectRatio="xMidYMid meet" version="1.0"><defs><g/><clipPath id="52e433b85a"><path d="M 0.105469 0 L 182.773438 0 L 182.773438 175.957031 L 0.105469 175.957031 Z M 0.105469 0 " clip-rule="nonzero"/></clipPath><clipPath id="20ffd9d9d5"><path d="M 94.453125 98.527344 L 210.761719 98.527344 L 210.761719 260 L 94.453125 260 Z M 94.453125 98.527344 " clip-rule="nonzero"/></clipPath></defs><g clip-path="url(#52e433b85a)"><path fill="#555555" d="M 0.117188 0.046875 L 66.09375 175.890625 L 114.765625 175.890625 L 48.785156 0.046875 Z M 133.746094 0.046875 L 94.304688 94.148438 L 142.972656 94.148438 L 182.414062 0.046875 Z M 133.746094 0.046875 " fill-opacity="1" fill-rule="nonzero"/></g><g clip-path="url(#20ffd9d9d5)"><path fill="#ffffff" d="M 210.386719 144.539062 C 210.453125 170.035156 189.726562 190.796875 164.25 190.796875 L 139.117188 190.796875 C 128.21875 190.796875 119.382812 199.632812 119.382812 210.53125 L 119.382812 235.929688 L 95.367188 259.945312 L 95.367188 216.746094 C 95.367188 189.152344 117.734375 166.78125 145.332031 166.78125 L 164.253906 166.78125 C 176.417969 166.78125 186.324219 156.910156 186.375 144.75 C 186.425781 132.535156 176.328125 122.539062 164.109375 122.539062 L 118.488281 122.539062 L 94.472656 98.527344 L 164.03125 98.527344 C 189.496094 98.527344 210.320312 119.074219 210.386719 144.539062 Z M 210.386719 144.539062 " fill-opacity="1" fill-rule="nonzero"/></g><g fill="#ffffff" fill-opacity="1"><g transform="translate(120.5394, 234.902527)"><g><path d="M 2.625 -19.078125 C 2.625 -21.785156 3.082031 -24.375 4 -26.84375 C 4.925781 -29.3125 6.25 -31.46875 7.96875 -33.3125 C 11.726562 -37.300781 16.609375 -39.296875 22.609375 -39.296875 C 28.585938 -39.296875 33.335938 -37.414062 36.859375 -33.65625 C 40.222656 -30.0625 41.90625 -25.398438 41.90625 -19.671875 C 41.90625 -13.929688 40.175781 -9.179688 36.71875 -5.421875 C 33.050781 -1.441406 28.191406 0.546875 22.140625 0.546875 C 15.890625 0.546875 10.992188 -1.40625 7.453125 -5.3125 C 4.234375 -8.875 2.625 -13.460938 2.625 -19.078125 Z M 11.578125 -19.296875 C 11.578125 -17.742188 11.835938 -16.242188 12.359375 -14.796875 C 12.878906 -13.347656 13.617188 -12.101562 14.578125 -11.0625 C 16.617188 -8.832031 19.296875 -7.71875 22.609375 -7.71875 C 25.691406 -7.71875 28.117188 -8.8125 29.890625 -11 C 31.609375 -13.113281 32.46875 -15.867188 32.46875 -19.265625 C 32.46875 -22.703125 31.582031 -25.476562 29.8125 -27.59375 C 27.914062 -29.863281 25.320312 -31 22.03125 -31 C 18.6875 -31 16.066406 -29.789062 14.171875 -27.375 C 12.441406 -25.164062 11.578125 -22.472656 11.578125 -19.296875 Z M 11.578125 -19.296875 "/></g></g></g><g fill="#ffffff" fill-opacity="1"><g transform="translate(164.698641, 234.902527)"><g><path d="M 14.125 -4.125 C 14.125 -2.007812 14.175781 -0.632812 14.28125 0 L 5.09375 0 L 5.09375 -38.5625 L 14.125 -38.5625 L 14.125 -35.71875 C 16.21875 -38.101562 18.414062 -39.296875 20.71875 -39.296875 C 23.019531 -39.296875 24.832031 -39.015625 26.15625 -38.453125 L 25.5 -28.515625 L 25.34375 -28.40625 C 24.488281 -29.9375 22.707031 -30.703125 20 -30.703125 C 18.96875 -30.703125 17.914062 -30.347656 16.84375 -29.640625 C 15.769531 -28.941406 14.863281 -28.015625 14.125 -26.859375 Z M 14.125 -4.125 "/></g></g></g><g fill="#ffffff" fill-opacity="1"><g transform="translate(189.932486, 234.902527)"><g><path d="M 22.546875 -8.109375 C 25.710938 -8.109375 27.890625 -8.9375 29.078125 -10.59375 L 29.375 -10.59375 L 29.484375 -2.03125 C 28.273438 -0.820312 26.035156 -0.0195312 22.765625 0.375 C 21.878906 0.488281 20.773438 0.546875 19.453125 0.546875 C 18.140625 0.546875 16.710938 0.300781 15.171875 -0.1875 C 13.640625 -0.675781 12.332031 -1.472656 11.25 -2.578125 C 9.007812 -4.867188 7.890625 -8.445312 7.890625 -13.3125 L 7.890625 -30.0625 L 2.328125 -30.0625 C 2.296875 -30.78125 2.28125 -31.507812 2.28125 -32.25 L 2.28125 -37.921875 C 2.28125 -38.347656 2.296875 -38.5625 2.328125 -38.5625 L 7.890625 -38.5625 L 7.890625 -49.078125 L 16.9375 -49.078125 L 16.9375 -38.5625 L 27.078125 -38.5625 L 27.078125 -30.0625 L 16.9375 -30.0625 L 16.9375 -15.015625 C 16.9375 -11.148438 18.003906 -8.945312 20.140625 -8.40625 C 20.828125 -8.207031 21.628906 -8.109375 22.546875 -8.109375 Z M 22.546875 -8.109375 "/></g></g></g><g fill="#ffffff" fill-opacity="1"><g transform="translate(221.474804, 234.902527)"><g><path d="M 23.828125 -34.3125 C 23.640625 -33.601562 23.546875 -31.804688 23.546875 -28.921875 L 23.546875 -25.671875 L 14.640625 -25.671875 L 14.640625 0 L 5.609375 0 L 5.609375 -25.671875 L 0.1875 -25.671875 C 0.207031 -27.296875 0.234375 -28.738281 0.265625 -30 L 0.328125 -33.9375 L 0.328125 -34.3125 L 5.609375 -34.3125 L 5.609375 -36.59375 C 5.609375 -42.5 6.984375 -47.25 9.734375 -50.84375 C 12.617188 -54.550781 16.582031 -56.40625 21.625 -56.40625 C 23.757812 -56.40625 25.171875 -56.257812 25.859375 -55.96875 L 25.90625 -46.703125 L 25.828125 -46.53125 C 24.890625 -47.457031 23.703125 -47.921875 22.265625 -47.921875 C 20.828125 -47.921875 19.664062 -47.679688 18.78125 -47.203125 C 17.894531 -46.722656 17.144531 -46.039062 16.53125 -45.15625 C 15.269531 -43.382812 14.640625 -40.960938 14.640625 -37.890625 L 14.640625 -34.3125 Z M 23.828125 -34.3125 "/></g></g></g><g fill="#ffffff" fill-opacity="1"><g transform="translate(246.708649, 234.902527)"><g><path d="M 2.625 -19.078125 C 2.625 -21.785156 3.082031 -24.375 4 -26.84375 C 4.925781 -29.3125 6.25 -31.46875 7.96875 -33.3125 C 11.726562 -37.300781 16.609375 -39.296875 22.609375 -39.296875 C 28.585938 -39.296875 33.335938 -37.414062 36.859375 -33.65625 C 40.222656 -30.0625 41.90625 -25.398438 41.90625 -19.671875 C 41.90625 -13.929688 40.175781 -9.179688 36.71875 -5.421875 C 33.050781 -1.441406 28.191406 0.546875 22.140625 0.546875 C 15.890625 0.546875 10.992188 -1.40625 7.453125 -5.3125 C 4.234375 -8.875 2.625 -13.460938 2.625 -19.078125 Z M 11.578125 -19.296875 C 11.578125 -17.742188 11.835938 -16.242188 12.359375 -14.796875 C 12.878906 -13.347656 13.617188 -12.101562 14.578125 -11.0625 C 16.617188 -8.832031 19.296875 -7.71875 22.609375 -7.71875 C 25.691406 -7.71875 28.117188 -8.8125 29.890625 -11 C 31.609375 -13.113281 32.46875 -15.867188 32.46875 -19.265625 C 32.46875 -22.703125 31.582031 -25.476562 29.8125 -27.59375 C 27.914062 -29.863281 25.320312 -31 22.03125 -31 C 18.6875 -31 16.066406 -29.789062 14.171875 -27.375 C 12.441406 -25.164062 11.578125 -22.472656 11.578125 -19.296875 Z M 21.515625 -55.453125 C 25.203125 -55.453125 29.132812 -55.660156 33.3125 -56.078125 L 33.28125 -55.828125 L 23.609375 -43.90625 L 15.28125 -43.90625 Z M 21.515625 -55.453125 "/></g></g></g><g fill="#ffffff" fill-opacity="1"><g transform="translate(290.867891, 234.902527)"><g><path d="M 13.984375 -4.125 C 13.984375 -2.007812 14.03125 -0.632812 14.125 0 L 4.765625 0 L 4.765625 -54.96875 L 13.984375 -54.96875 Z M 13.984375 -4.125 "/></g></g></g><g fill="#ffffff" fill-opacity="1"><g transform="translate(309.793286, 234.902527)"><g><path d="M 4.25 -49.546875 C 6.207031 -52.617188 8.257812 -55.328125 10.40625 -57.671875 L 18.34375 -51.4375 C 17.28125 -50.132812 16.296875 -48.851562 15.390625 -47.59375 C 15.390625 -47.59375 14.441406 -46.253906 12.546875 -43.578125 Z M 13.953125 -4.125 C 13.953125 -2.007812 14 -0.632812 14.09375 0 L 4.71875 0 L 4.71875 -38.5625 L 13.953125 -38.5625 Z M 13.953125 -4.125 "/></g></g></g><g fill="#ffffff" fill-opacity="1"><g transform="translate(328.718681, 234.902527)"><g><path d="M 2.625 -19.078125 C 2.625 -21.785156 3.082031 -24.375 4 -26.84375 C 4.925781 -29.3125 6.25 -31.46875 7.96875 -33.3125 C 11.726562 -37.300781 16.609375 -39.296875 22.609375 -39.296875 C 28.585938 -39.296875 33.335938 -37.414062 36.859375 -33.65625 C 40.222656 -30.0625 41.90625 -25.398438 41.90625 -19.671875 C 41.90625 -13.929688 40.175781 -9.179688 36.71875 -5.421875 C 33.050781 -1.441406 28.191406 0.546875 22.140625 0.546875 C 15.890625 0.546875 10.992188 -1.40625 7.453125 -5.3125 C 4.234375 -8.875 2.625 -13.460938 2.625 -19.078125 Z M 11.578125 -19.296875 C 11.578125 -17.742188 11.835938 -16.242188 12.359375 -14.796875 C 12.878906 -13.347656 13.617188 -12.101562 14.578125 -11.0625 C 16.617188 -8.832031 19.296875 -7.71875 22.609375 -7.71875 C 25.691406 -7.71875 28.117188 -8.8125 29.890625 -11 C 31.609375 -13.113281 32.46875 -15.867188 32.46875 -19.265625 C 32.46875 -22.703125 31.582031 -25.476562 29.8125 -27.59375 C 27.914062 -29.863281 25.320312 -31 22.03125 -31 C 18.6875 -31 16.066406 -29.789062 14.171875 -27.375 C 12.441406 -25.164062 11.578125 -22.472656 11.578125 -19.296875 Z M 11.578125 -19.296875 "/></g></g></g></svg>