<svg xmlns="http://www.w3.org/2000/svg" xmlns:xlink="http://www.w3.org/1999/xlink" width="498" zoomAndPan="magnify" viewBox="0 0 373.5 262.499992" height="350" preserveAspectRatio="xMidYMid meet" version="1.0"><defs><g/><clipPath id="e606f1b0f9"><path d="M 0.105469 0 L 182.773438 0 L 182.773438 175.957031 L 0.105469 175.957031 Z M 0.105469 0 " clip-rule="nonzero"/></clipPath><clipPath id="b56ce324e2"><path d="M 94.453125 98.527344 L 210.761719 98.527344 L 210.761719 260 L 94.453125 260 Z M 94.453125 98.527344 " clip-rule="nonzero"/></clipPath></defs><g clip-path="url(#e606f1b0f9)"><path fill="#1900ff" d="M 0.117188 0.046875 L 66.09375 175.890625 L 114.765625 175.890625 L 48.785156 0.046875 Z M 133.746094 0.046875 L 94.304688 94.148438 L 142.972656 94.148438 L 182.414062 0.046875 Z M 133.746094 0.046875 " fill-opacity="1" fill-rule="nonzero"/></g><g clip-path="url(#b56ce324e2)"><path fill="#ffffff" d="M 210.386719 144.539062 C 210.453125 170.035156 189.726562 190.796875 164.25 190.796875 L 139.117188 190.796875 C 128.21875 190.796875 119.382812 199.632812 119.382812 210.53125 L 119.382812 235.929688 L 95.367188 259.945312 L 95.367188 216.746094 C 95.367188 189.152344 117.734375 166.78125 145.332031 166.78125 L 164.253906 166.78125 C 176.417969 166.78125 186.324219 156.910156 186.375 144.75 C 186.425781 132.535156 176.328125 122.539062 164.109375 122.539062 L 118.488281 122.539062 L 94.472656 98.527344 L 164.03125 98.527344 C 189.496094 98.527344 210.320312 119.074219 210.386719 144.539062 Z M 210.386719 144.539062 " fill-opacity="1" fill-rule="nonzero"/></g><g fill="#ffffff" fill-opacity="1"><g transform="translate(120.551097, 235.216348)"><g><path d="M 2.625 -19.078125 C 2.625 -21.773438 3.082031 -24.359375 4 -26.828125 C 4.925781 -29.304688 6.25 -31.46875 7.96875 -33.3125 C 11.726562 -37.289062 16.609375 -39.28125 22.609375 -39.28125 C 28.585938 -39.28125 33.332031 -37.398438 36.84375 -33.640625 C 40.21875 -30.046875 41.90625 -25.382812 41.90625 -19.65625 C 41.90625 -13.925781 40.171875 -9.179688 36.703125 -5.421875 C 33.035156 -1.441406 28.179688 0.546875 22.140625 0.546875 C 15.890625 0.546875 10.992188 -1.40625 7.453125 -5.3125 C 4.234375 -8.875 2.625 -13.460938 2.625 -19.078125 Z M 11.578125 -19.296875 C 11.578125 -17.742188 11.832031 -16.238281 12.34375 -14.78125 C 12.863281 -13.332031 13.609375 -12.09375 14.578125 -11.0625 C 16.609375 -8.820312 19.285156 -7.703125 22.609375 -7.703125 C 25.679688 -7.703125 28.101562 -8.800781 29.875 -11 C 31.601562 -13.113281 32.46875 -15.863281 32.46875 -19.25 C 32.46875 -22.695312 31.582031 -25.476562 29.8125 -27.59375 C 27.914062 -29.851562 25.316406 -30.984375 22.015625 -30.984375 C 18.671875 -30.984375 16.054688 -29.78125 14.171875 -27.375 C 12.441406 -25.15625 11.578125 -22.460938 11.578125 -19.296875 Z M 11.578125 -19.296875 "/></g></g></g><g fill="#ffffff" fill-opacity="1"><g transform="translate(164.706548, 235.216348)"><g><path d="M 14.125 -4.125 C 14.125 -2.007812 14.175781 -0.632812 14.28125 0 L 5.09375 0 L 5.09375 -38.546875 L 14.125 -38.546875 L 14.125 -35.703125 C 16.21875 -38.085938 18.410156 -39.28125 20.703125 -39.28125 C 23.003906 -39.28125 24.820312 -39 26.15625 -38.4375 L 25.484375 -28.515625 L 25.34375 -28.40625 C 24.476562 -29.925781 22.695312 -30.6875 20 -30.6875 C 18.957031 -30.6875 17.898438 -30.335938 16.828125 -29.640625 C 15.765625 -28.941406 14.863281 -28.015625 14.125 -26.859375 Z M 14.125 -4.125 "/></g></g></g><g fill="#ffffff" fill-opacity="1"><g transform="translate(189.938231, 235.216348)"><g><path d="M 22.53125 -8.109375 C 25.707031 -8.109375 27.882812 -8.9375 29.0625 -10.59375 L 29.359375 -10.59375 L 29.46875 -2.03125 C 28.269531 -0.820312 26.035156 -0.0195312 22.765625 0.375 C 21.878906 0.488281 20.773438 0.546875 19.453125 0.546875 C 18.140625 0.546875 16.710938 0.300781 15.171875 -0.1875 C 13.640625 -0.675781 12.332031 -1.472656 11.25 -2.578125 C 9.007812 -4.867188 7.890625 -8.445312 7.890625 -13.3125 L 7.890625 -30.0625 L 2.328125 -30.0625 C 2.296875 -30.78125 2.28125 -31.503906 2.28125 -32.234375 L 2.28125 -37.921875 C 2.28125 -38.335938 2.296875 -38.546875 2.328125 -38.546875 L 7.890625 -38.546875 L 7.890625 -49.0625 L 16.9375 -49.0625 L 16.9375 -38.546875 L 27.078125 -38.546875 L 27.078125 -30.0625 L 16.9375 -30.0625 L 16.9375 -15.015625 C 16.9375 -11.148438 18.003906 -8.945312 20.140625 -8.40625 C 20.828125 -8.207031 21.625 -8.109375 22.53125 -8.109375 Z M 22.53125 -8.109375 "/></g></g></g><g fill="#ffffff" fill-opacity="1"><g transform="translate(221.477841, 235.216348)"><g><path d="M 23.828125 -34.3125 C 23.628906 -33.59375 23.53125 -31.796875 23.53125 -28.921875 L 23.53125 -25.671875 L 14.640625 -25.671875 L 14.640625 0 L 5.609375 0 L 5.609375 -25.671875 L 0.1875 -25.671875 C 0.207031 -27.296875 0.234375 -28.734375 0.265625 -29.984375 L 0.328125 -33.9375 L 0.328125 -34.3125 L 5.609375 -34.3125 L 5.609375 -36.59375 C 5.609375 -42.5 6.984375 -47.242188 9.734375 -50.828125 C 12.609375 -54.546875 16.566406 -56.40625 21.609375 -56.40625 C 23.753906 -56.40625 25.171875 -56.253906 25.859375 -55.953125 L 25.890625 -46.703125 L 25.828125 -46.515625 C 24.890625 -47.453125 23.703125 -47.921875 22.265625 -47.921875 C 20.828125 -47.921875 19.664062 -47.679688 18.78125 -47.203125 C 17.894531 -46.722656 17.144531 -46.039062 16.53125 -45.15625 C 15.269531 -43.382812 14.640625 -40.960938 14.640625 -37.890625 L 14.640625 -34.3125 Z M 23.828125 -34.3125 "/></g></g></g><g fill="#ffffff" fill-opacity="1"><g transform="translate(246.709524, 235.216348)"><g><path d="M 2.625 -19.078125 C 2.625 -21.773438 3.082031 -24.359375 4 -26.828125 C 4.925781 -29.304688 6.25 -31.46875 7.96875 -33.3125 C 11.726562 -37.289062 16.609375 -39.28125 22.609375 -39.28125 C 28.585938 -39.28125 33.332031 -37.398438 36.84375 -33.640625 C 40.21875 -30.046875 41.90625 -25.382812 41.90625 -19.65625 C 41.90625 -13.925781 40.171875 -9.179688 36.703125 -5.421875 C 33.035156 -1.441406 28.179688 0.546875 22.140625 0.546875 C 15.890625 0.546875 10.992188 -1.40625 7.453125 -5.3125 C 4.234375 -8.875 2.625 -13.460938 2.625 -19.078125 Z M 11.578125 -19.296875 C 11.578125 -17.742188 11.832031 -16.238281 12.34375 -14.78125 C 12.863281 -13.332031 13.609375 -12.09375 14.578125 -11.0625 C 16.609375 -8.820312 19.285156 -7.703125 22.609375 -7.703125 C 25.679688 -7.703125 28.101562 -8.800781 29.875 -11 C 31.601562 -13.113281 32.46875 -15.863281 32.46875 -19.25 C 32.46875 -22.695312 31.582031 -25.476562 29.8125 -27.59375 C 27.914062 -29.851562 25.316406 -30.984375 22.015625 -30.984375 C 18.671875 -30.984375 16.054688 -29.78125 14.171875 -27.375 C 12.441406 -25.15625 11.578125 -22.460938 11.578125 -19.296875 Z M 21.5 -55.4375 C 25.1875 -55.4375 29.125 -55.644531 33.3125 -56.0625 L 33.265625 -55.8125 L 23.609375 -43.890625 L 15.265625 -43.890625 Z M 21.5 -55.4375 "/></g></g></g><g fill="#ffffff" fill-opacity="1"><g transform="translate(290.864975, 235.216348)"><g><path d="M 13.984375 -4.125 C 13.984375 -2.007812 14.03125 -0.632812 14.125 0 L 4.765625 0 L 4.765625 -54.96875 L 13.984375 -54.96875 Z M 13.984375 -4.125 "/></g></g></g><g fill="#ffffff" fill-opacity="1"><g transform="translate(309.788744, 235.216348)"><g><path d="M 4.234375 -49.546875 C 6.203125 -52.617188 8.257812 -55.320312 10.40625 -57.65625 L 18.328125 -51.421875 C 17.273438 -50.117188 16.289062 -48.835938 15.375 -47.578125 C 15.375 -47.578125 14.429688 -46.238281 12.546875 -43.5625 Z M 13.9375 -4.125 C 13.9375 -2.007812 13.988281 -0.632812 14.09375 0 L 4.71875 0 L 4.71875 -38.546875 L 13.9375 -38.546875 Z M 13.9375 -4.125 "/></g></g></g><g fill="#ffffff" fill-opacity="1"><g transform="translate(328.712523, 235.216348)"><g><path d="M 2.625 -19.078125 C 2.625 -21.773438 3.082031 -24.359375 4 -26.828125 C 4.925781 -29.304688 6.25 -31.46875 7.96875 -33.3125 C 11.726562 -37.289062 16.609375 -39.28125 22.609375 -39.28125 C 28.585938 -39.28125 33.332031 -37.398438 36.84375 -33.640625 C 40.21875 -30.046875 41.90625 -25.382812 41.90625 -19.65625 C 41.90625 -13.925781 40.171875 -9.179688 36.703125 -5.421875 C 33.035156 -1.441406 28.179688 0.546875 22.140625 0.546875 C 15.890625 0.546875 10.992188 -1.40625 7.453125 -5.3125 C 4.234375 -8.875 2.625 -13.460938 2.625 -19.078125 Z M 11.578125 -19.296875 C 11.578125 -17.742188 11.832031 -16.238281 12.34375 -14.78125 C 12.863281 -13.332031 13.609375 -12.09375 14.578125 -11.0625 C 16.609375 -8.820312 19.285156 -7.703125 22.609375 -7.703125 C 25.679688 -7.703125 28.101562 -8.800781 29.875 -11 C 31.601562 -13.113281 32.46875 -15.863281 32.46875 -19.25 C 32.46875 -22.695312 31.582031 -25.476562 29.8125 -27.59375 C 27.914062 -29.851562 25.316406 -30.984375 22.015625 -30.984375 C 18.671875 -30.984375 16.054688 -29.78125 14.171875 -27.375 C 12.441406 -25.15625 11.578125 -22.460938 11.578125 -19.296875 Z M 11.578125 -19.296875 "/></g></g></g></svg>